inDegrees=no
num_controls=7
num_derivatives=13
num_iterations=204
num_multipliers=7
num_parameters=0
num_slacks=7
num_states=26
objective=5.371540
objective_accelerations=0.700067
objective_balance=0.041893
objective_effort=0.276796
objective_height=4.271007
objective_ligament=0.081778
solver_duration=2242.934222
status=Solve_Succeeded
success=true
DataType=double
version=3
OpenSimVersion=4.4-2022-07-23-0e9fedc
endheader
time	/jointset/ground_pelvis/pelvis_tilt/value	/jointset/ground_pelvis/pelvis_tx/value	/jointset/ground_pelvis/pelvis_ty/value	/jointset/hip_l/hip_flexion_l/value	/jointset/hip_l/hip_adduction_l/value	/jointset/hip_l/hip_rotation_l/value	/jointset/back/lumbar_extension/value	/jointset/patellofemoral_l/patellar_flexion_l/value	/jointset/knee_l/knee_flexion_l/value	/jointset/knee_l/knee_adduction_l/value	/jointset/knee_l/knee_rotation_l/value	/jointset/ankle_l/ankle_angle_l/value	/jointset/subtalar_l/subtalar_angle_l/value	/jointset/ground_pelvis/pelvis_tilt/speed	/jointset/ground_pelvis/pelvis_tx/speed	/jointset/ground_pelvis/pelvis_ty/speed	/jointset/hip_l/hip_flexion_l/speed	/jointset/hip_l/hip_adduction_l/speed	/jointset/hip_l/hip_rotation_l/speed	/jointset/back/lumbar_extension/speed	/jointset/patellofemoral_l/patellar_flexion_l/speed	/jointset/knee_l/knee_flexion_l/speed	/jointset/knee_l/knee_adduction_l/speed	/jointset/knee_l/knee_rotation_l/speed	/jointset/ankle_l/ankle_angle_l/speed	/jointset/subtalar_l/subtalar_angle_l/speed	/forceset/tau_hip_flexion_l	/forceset/tau_hip_adduction_l	/forceset/tau_hip_rotation_l	/forceset/tau_knee_flexion_l	/forceset/tau_ankle_angle_l	/forceset/tau_subtalar_angle_l	/forceset/tau_lumbar_extension	lambda_cid13_p0	lambda_cid13_p1	lambda_cid13_p2	lambda_cid13_p3	lambda_cid13_p4	lambda_cid13_p5	lambda_cid14_p0	/jointset/ground_pelvis/pelvis_tilt/accel	/jointset/ground_pelvis/pelvis_tx/accel	/jointset/ground_pelvis/pelvis_ty/accel	/jointset/hip_l/hip_flexion_l/accel	/jointset/hip_l/hip_adduction_l/accel	/jointset/hip_l/hip_rotation_l/accel	/jointset/back/lumbar_extension/accel	/jointset/patellofemoral_l/patellar_flexion_l/accel	/jointset/knee_l/knee_flexion_l/accel	/jointset/knee_l/knee_adduction_l/accel	/jointset/knee_l/knee_rotation_l/accel	/jointset/ankle_l/ankle_angle_l/accel	/jointset/subtalar_l/subtalar_angle_l/accel	gamma_cid13_p0	gamma_cid13_p1	gamma_cid13_p2	gamma_cid13_p3	gamma_cid13_p4	gamma_cid13_p5	gamma_cid14_p0
0	-0.04112180794888199	0.069620075410824	0.8960154947132618	0.1955292361009247	-0.3213252379460364	-0.4968997752760274	-0.137903700187828	0.07015350928390388	0.07015350928391206	-0.1745318372383766	-0.1306921172397725	-0.06701017130107029	0.004705117950295146	0	0	0	0	0	0	0	0	0	0	0	0	0	0.09718900771126086	-0.08564746020612188	-0.02973771952385165	-0.2133883842870217	0.1636775071372311	-0.01616200090483869	-0.04477425637676829	16.50430863774658	-0.06249326424927947	4.462164337885206	7.295938451882416	-518.6626343565158	-79.58518575528802	-40.26402491025891	-4.47628390889857	-2.000584633818904	-0.9009568822684261	12.83019313959145	-1.373579314459362	2.931731791553864	-2.780370245947802	9.753816641829316	9.753816641830944	2.197729096218875	-1.065440440624267	2.074035358759632	-0.384647358896355	6.591055253878572e-09	1.450393348967812e-07	6.781078246776938e-08	1.157008030412182e-08	-9.801653272276368e-10	-2.385472868437514e-08	1.733308372050053e-08
0.01	-0.04133583320909669	0.06952147509661279	0.8959718149285899	0.1961511130912036	-0.3213922012437462	-0.4967518404972118	-0.1380484494277122	0.07062760000444501	0.07062760000458215	-0.1744248924588759	-0.1307388909349586	-0.06691048418510305	0.00468553210818091	-0.04261943761325948	-0.01961642419313075	-0.00870767685904331	0.1238193072934834	-0.01331066330345059	0.02945825332166666	-0.02870366006909221	0.09439278417029202	0.09439278417028563	0.02133165368892292	-0.009296205646821267	0.01987038655790658	-0.003864103314693445	0.09373074457897733	-0.08651100962361376	-0.02916482681287338	-0.2099455381861584	0.1586482265977531	-0.01250633320846964	-0.04170034564180985	15.00739887896352	-1.336591925707353	4.606511234353009	7.33507588283978	-519.48350166725	-82.08881017641551	-40.2736047627765	-4.126938346677235	-1.926623201487477	-0.8514312724344218	12.07437891688979	-1.29754410099935	2.93356264551627	-2.878435700640285	9.218201846532466	9.218201846531208	2.092321006222678	-0.8529292940690291	1.933491674068215	-0.3793632475244368	-1.35554674581625e-08	1.633623552612997e-07	1.48650511763981e-07	3.996125912119782e-08	-2.126101722511143e-07	-9.12008488317287e-08	2.005699202374396e-08
0.02	-0.04197048577730125	0.06922982016258562	0.895841906738382	0.1979944990329416	-0.3215898180270083	-0.4963131850765202	-0.138472849630935	0.07203285707511715	0.07203285707511928	-0.1741063436420497	-0.1308768704199458	-0.06661410292960258	0.004628890946965551	-0.08412546159175775	-0.03861092396318884	-0.01724568110718879	0.2443017902936497	-0.02613069711529252	0.05814412836504942	-0.05593019266814595	0.1862332700166725	0.1862332700166609	0.04232080741757716	-0.01824115798796088	0.03933882790626338	-0.007411063820138801	0.0902724814463108	-0.08737455904128358	-0.02859193410282215	-0.2065026920858475	0.1536189460578706	-0.00885066551250282	-0.03862643490666264	13.5731430310936	-2.618664100642977	4.748706038927935	7.256368157598454	-519.3724382166452	-84.40838058654634	-40.30178021518604	-4.253601181946001	-1.87619974920466	-0.867022360088858	12.1628282809281	-1.27545341613762	2.777256135897068	-2.484944751939853	9.243356977046989	9.243356977048849	2.129229104165189	-0.9951897794879944	1.993646316849318	-0.3212187970469063	-3.370199017020358e-08	1.816853756258182e-07	2.294902410601926e-07	6.835243793827383e-08	-4.242401791750009e-07	-1.585469689790823e-07	2.278090032698739e-08
0.03	-0.04301503663836279	0.06875125484496333	0.8956271510604196	0.2010270054449541	-0.321913236612253	-0.4955922028985839	-0.1391615557799039	0.07434455029928307	0.07434455029925612	-0.1735796358709729	-0.1311033131422832	-0.06612488707546331	0.004538392847824297	-0.1245777700591263	-0.05700328617800153	-0.02569997602791985	0.3616361590305175	-0.03847612475761216	0.08592863330948214	-0.08157147423586998	0.2756915659343239	0.2756915659343168	0.06293793357000294	-0.0269732206263845	0.05843149327842818	-0.0106450162830742	0.08586829169005472	-0.08319422120038335	-0.02786165094449807	-0.2023172542782418	0.1495468167123877	-0.009013318628956003	-0.03494257806068988	12.30428867644015	-2.398550295939048	4.796647555071965	7.524843269911431	-519.1901215954061	-83.18105356244588	-40.34746421967166	-3.910006029373572	-1.805912665626285	-0.8338969925623633	11.43423295968128	-1.202610025911621	2.760466799347091	-2.567785425094636	8.734989999612932	8.734989999612724	2.015591603222875	-0.8010644316065449	1.856160089905022	-0.3180083037993934	-4.930688102394621e-08	1.658683961169143e-07	2.895472935583731e-07	8.413899468043885e-08	-5.758943944309732e-07	-2.123801944436163e-07	2.077466944319967e-08
